:SAMPLES-PER-SECOND 30
:FRAME-RANGE 1-1700
:FULLY-SPECIFIED
:DEGREES
372
root  32.2724 35.3746 60.0178 170.407 48.0817 177.593
RightUpLeg  -11.7939 2.72022 -0.384386
RightLeg  52.1021 1.41773 1.57807
RightFoot  -31.0391 -0.368812 -0.908845
RightToes  6.35937e-011 1.2921e-014 -6.02303e-014
Spine  19.6423 0.969725 2.3283
Spine1  -0.347496 -0.599749 4.51456
HEad  -20.8201 39.4831 -27.0855
LeftShoulder1  3.26021 -12.3991 -14.0706
LeftArm  37.4276 -42.2111 -87.0801
LeftForeArm  66.7779 2.12943 -16.4171
LeftHand  -0.326112 12.6169 -3.95758
RightShoulder  3.341 8.30133 22.6767
RightArm  -9.35062 35.5316 69.6579
RightForeArm  98.5068 -4.58975 6.77866
RightHand  0.603154 -10.1746 -15.2177
LeftUpLeg  -92.4121 10.1143 -50.7787
LeftLeg  113.189 -5.57751 11.0507
LeftFoot  -30.9577 -0.275245 -2.67104
LeftToes  -1.9349e-011 5.45182e-011 1.33515e-010
373
root  32.9986 36.3005 59.2349 171.201 45.5891 176.772
RightUpLeg  -8.46962 1.30732 -1.61425
RightLeg  46.4378 1.40984 1.26463
RightFoot  -28.966 -0.194862 0.0117489
RightToes  6.35937e-011 1.2921e-014 -6.02303e-014
Spine  18.1359 1.15106 1.49895
Spine1  -1.33233 -0.731885 5.2755
HEad  -20.4806 39.4526 -26.7851
LeftShoulder1  3.25888 -12.0621 -14.5633
LeftArm  35.5725 -41.3121 -85.6219
LeftForeArm  67.083 2.29793 -16.3564
LeftHand  -0.32057 12.4337 -4.0186
RightShoulder  3.43289 8.10024 24.0673
RightArm  -11.7611 34.845 69.7962
RightForeArm  100.649 -4.19383 4.96729
RightHand  0.74045 -11.0186 -15.7545
LeftUpLeg  -93.9421 10.0335 -50.9433
LeftLeg  113.48 -5.48563 10.723
LeftFoot  -31.1695 -0.257605 -2.54855
LeftToes  -1.9349e-011 5.45182e-011 1.33515e-010
374
root  33.6995 37.5259 58.3162 171.279 43.4332 175.528
RightUpLeg  -5.08994 0.904954 -3.35092
RightLeg  41.1876 1.97507 1.56429
RightFoot  -23.8157 0.111773 2.49955
RightToes  6.35937e-011 1.2921e-014 -6.02303e-014
Spine  17.1089 1.402 0.975484
Spine1  -2.75464 -0.620073 5.49392
HEad  -18.2928 39.0179 -25.2072
LeftShoulder1  3.19245 -11.6775 -14.6762
LeftArm  36.0333 -40.5543 -84.7843
LeftForeArm  65.2137 2.01417 -16.5025
LeftHand  -0.316509 12.2304 -4.0871
RightShoulder  3.44605 7.80615 25.0294
RightArm  -12.1603 33.6903 69.6705
RightForeArm  101.013 -4.18087 4.99265
RightHand  0.70784 -10.9409 -15.3182
LeftUpLeg  -95.588 10.2289 -51.4834
LeftLeg  114.215 -5.0398 9.50545
LeftFoot  -31.3813 -0.418738 -3.43991
LeftToes  -1.9349e-011 5.45182e-011 1.33515e-010
375
root  34.2728 38.8437 57.3414 171.289 41.6422 174.58
RightUpLeg  -3.12157 1.08745 -5.32168
RightLeg  38.2122 3.85534 2.98149
RightFoot  -15.9689 0.150048 6.38983
RightToes  6.35937e-011 1.2921e-014 -6.02303e-014
Spine  16.0063 1.32513 1.48195
Spine1  -3.33493 -0.530699 4.7046
HEad  -15.4024 38.7256 -23.503
LeftShoulder1  3.10531 -11.3044 -14.6208
LeftArm  35.1398 -39.7971 -83.4777
LeftForeArm  63.0834 2.21037 -16.5219
LeftHand  -0.306713 11.9331 -4.10173
RightShoulder  3.52935 7.97197 25.3272
RightArm  -11.9335 33.3102 70.027
RightForeArm  101.089 -4.21052 5.19537
RightHand  0.769368 -11.2491 -15.7135
LeftUpLeg  -96.9974 10.1677 -51.7045
LeftLeg  114.468 -4.61462 8.56973
LeftFoot  -31.6753 -0.361174 -3.0785
LeftToes  -1.9349e-011 5.45182e-011 1.33515e-010
376
root  34.7592 40.0126 56.4213 170.891 39.2918 173.992
RightUpLeg  -3.15896 4.00857 -6.16571
RightLeg  39.3229 3.88072 3.12677
RightFoot  -6.53911 -0.391228 8.25297
RightToes  6.35937e-011 1.2921e-014 -6.02303e-014
Spine  15.8234 1.16296 1.40108
Spine1  -3.66724 -0.732026 5.12864
HEad  -11.8885 38.1394 -21.793
LeftShoulder1  3.10043 -11.2309 -14.7023
LeftArm  33.4806 -39.5097 -82.9953
LeftForeArm  62.6753 2.61145 -16.4156
LeftHand  -0.301257 11.9002 -4.0322
RightShoulder  3.57267 8.08258 25.4079
RightArm  -12.4821 33.4086 69.9995
RightForeArm  101.825 -4.09587 4.7085
RightHand  0.80329 -11.5114 -15.6885
LeftUpLeg  -96.925 9.80761 -51.6603
LeftLeg  113.69 -3.97401 7.56821
LeftFoot  -31.8917 -0.49339 -3.78158
LeftToes  -1.9349e-011 5.45182e-011 1.33515e-010
377
root  35.1531 40.75 55.6215 170.124 36.5956 173.616
RightUpLeg  -5.14359 8.43463 -5.60349
RightLeg  43.8303 1.89515 1.64241
RightFoot  -0.018944 -0.257596 2.59598
RightToes  6.35937e-011 1.2921e-014 -6.02303e-014
Spine  16.6807 1.00813 1.19332
Spine1  -3.40853 -0.9181 5.70155
HEad  -10.1252 36.7566 -21.0693
LeftShoulder1  3.17149 -11.5977 -14.6475
LeftArm  29.1689 -40.1654 -83.374
LeftForeArm  65.0368 3.60598 -15.9468
LeftHand  -0.27199 12.1012 -3.40955
RightShoulder  3.49838 7.91109 25.2153
RightArm  -12.5233 34.5465 69.8102
RightForeArm  102.571 -4.00402 4.36495
RightHand  0.734681 -11.1877 -15.2144
LeftUpLeg  -95.9861 9.27995 -51.9759
LeftLeg  111.963 -3.39036 6.90616
LeftFoot  -31.7685 -0.613882 -4.46868
LeftToes  -1.9349e-011 5.45182e-011 1.33515e-010
378
root  35.4741 41.0403 54.9314 169.727 33.6049 172.974
RightUpLeg  -6.13311 11.7954 -6.25916
RightLeg  43.0106 3.27391 2.97107
RightFoot  -5.92954 -0.11511 1.58264
RightToes  6.35937e-011 1.2921e-014 -6.02303e-014
Spine  18.127 0.814136 0.801717
Spine1  -3.3554 -1.1068 5.78461
HEad  -10.1977 35.1151 -21.4427
LeftShoulder1  3.28206 -11.9906 -14.8387
LeftArm  25.8972 -40.6988 -83.8602
LeftForeArm  66.6931 4.37771 -15.4856
LeftHand  -0.258002 12.3503 -3.04313
RightShoulder  3.39519 7.84712 24.4297
RightArm  -12.0201 35.9607 69.5528
RightForeArm  102.597 -4.0089 4.40196
RightHand  0.774887 -11.3787 -15.4952
LeftUpLeg  -94.6446 8.3513 -53.2623
LeftLeg  109.204 -2.89575 6.66577
LeftFoot  -31.3957 -0.652292 -4.75739
LeftToes  -1.9349e-011 5.45182e-011 1.33515e-010
